#N canvas 1207 331 555 373 10;
#X obj 7 31 bng 15 250 50 0 empty empty empty 17 7 0 10 -262144 -1
-1;
#X obj 7 106 vline~;
#X obj 6 128 pow~ 3;
#X obj 79 132 noise~;
#X obj 5 174 *~;
#X obj 6 197 *~ 0.7;
#X obj 251 135 vline~;
#X obj 252 161 pow~ 1;
#X obj 253 184 *~;
#X obj 254 209 bp~ 1100 3;
#X obj 26 230 bp~ 1000 5;
#X obj 7 257 lop~ 3000;
#X obj 29 340 outlet~;
#X obj 10 7 inlet;
#X obj 27 313 *~ 0.2;
#X msg 251 112 1 36 \, 0 340 36;
#X msg 7 58 1 0 \, 0 11 0 \, 1 0 11 \, 0 112 11 \, 1 0 23 \, 0 8 23
\, 1 0 31 \, 0 150 31, f 75;
#X obj 115 19 inlet;
#X connect 0 0 16 0;
#X connect 0 0 15 0;
#X connect 1 0 2 0;
#X connect 2 0 4 0;
#X connect 3 0 4 1;
#X connect 3 0 8 1;
#X connect 4 0 5 0;
#X connect 5 0 10 0;
#X connect 5 0 11 0;
#X connect 6 0 7 0;
#X connect 7 0 8 0;
#X connect 8 0 9 0;
#X connect 9 0 14 0;
#X connect 10 0 11 0;
#X connect 11 0 14 0;
#X connect 13 0 0 0;
#X connect 14 0 12 0;
#X connect 15 0 6 0;
#X connect 16 0 1 0;
#X connect 17 0 16 0;
