#N canvas 795 209 583 780 10;
#X obj 21 14 tgl 15 0 empty empty empty 17 7 0 10 -262144 -1 -1 0 1
;
#X obj 90 309 bng 15 250 50 0 empty empty empty 17 7 0 10 -262144 -1
-1;
#X obj 105 309 bng 15 250 50 0 empty empty empty 17 7 0 10 -262144
-1 -1;
#X floatatom 95 264 5 0 0 0 - - -;
#X obj 120 309 bng 15 250 50 0 empty empty empty 17 7 0 10 -262144
-1 -1;
#X obj 135 309 bng 15 250 50 0 empty empty empty 17 7 0 10 -262144
-1 -1;
#X obj 150 309 bng 15 250 50 0 empty empty empty 17 7 0 10 -262144
-1 -1;
#X obj 165 309 bng 15 250 50 0 empty empty empty 17 7 0 10 -262144
-1 -1;
#X obj 40 96 f 0;
#X obj 70 97 + 1;
#X floatatom 126 25 5 0 0 0 - - -;
#X obj 34 69 t b;
#X obj 181 309 bng 15 250 50 0 empty empty empty 17 7 0 10 -262144
-1 -1;
#X obj 197 309 bng 15 250 50 0 empty empty empty 17 7 0 10 -262144
-1 -1;
#X floatatom 65 129 5 0 0 0 - - -;
#X obj 327 148 bng 15 250 50 0 empty empty empty 17 7 0 10 -262144
-1 -1;
#X obj 361 440 hihat;
#X obj 178 646 dac~;
#X obj 334 538 clap;
#X obj 220 597 *~ 0.9;
#X obj 198 455 snare;
#X obj 85 154 mod 16;
#X obj 90 285 sel 0 1 2 3 4 5 6 7 8 9 10 11 12 13 14 15;
#X obj 211 309 bng 15 250 50 0 empty empty empty 17 7 0 10 -262144
-1 -1;
#X obj 226 309 bng 15 250 50 0 empty empty empty 17 7 0 10 -262144
-1 -1;
#X obj 241 309 bng 15 250 50 0 empty empty empty 17 7 0 10 -262144
-1 -1;
#X obj 256 309 bng 15 250 50 0 empty empty empty 17 7 0 10 -262144
-1 -1;
#X obj 271 309 bng 15 250 50 0 empty empty empty 17 7 0 10 -262144
-1 -1;
#X obj 286 309 bng 15 250 50 0 empty empty empty 17 7 0 10 -262144
-1 -1;
#X obj 302 309 bng 15 250 50 0 empty empty empty 17 7 0 10 -262144
-1 -1;
#X obj 317 309 bng 15 250 50 0 empty empty empty 17 7 0 10 -262144
-1 -1;
#X obj 21 47 metro 89;
#X obj 92 234 spigot;
#X obj 142 207 tgl 15 0 empty empty empty 17 7 0 10 -262144 -1 -1 0
1;
#X obj 27 244 sel 0;
#X obj 57 473 kick;
#X obj 72 414 bng 15 250 50 0 empty empty empty 17 7 0 10 -262144 -1
-1;
#X obj 278 76 loadbang;
#X connect 0 0 31 0;
#X connect 3 0 22 0;
#X connect 6 0 20 0;
#X connect 6 0 16 1;
#X connect 8 0 9 0;
#X connect 8 0 14 0;
#X connect 9 0 8 1;
#X connect 10 0 31 1;
#X connect 11 0 8 0;
#X connect 14 0 21 0;
#X connect 15 0 16 0;
#X connect 16 0 19 0;
#X connect 18 0 19 0;
#X connect 19 0 17 1;
#X connect 19 0 17 0;
#X connect 20 0 19 0;
#X connect 21 0 15 0;
#X connect 21 0 32 0;
#X connect 21 0 34 0;
#X connect 22 0 1 0;
#X connect 22 1 2 0;
#X connect 22 2 4 0;
#X connect 22 3 5 0;
#X connect 22 4 6 0;
#X connect 22 5 7 0;
#X connect 22 6 12 0;
#X connect 22 7 13 0;
#X connect 22 8 23 0;
#X connect 22 9 24 0;
#X connect 22 10 25 0;
#X connect 22 11 26 0;
#X connect 22 12 27 0;
#X connect 22 13 28 0;
#X connect 22 14 29 0;
#X connect 22 15 30 0;
#X connect 25 0 35 0;
#X connect 27 0 20 0;
#X connect 27 0 16 1;
#X connect 31 0 11 0;
#X connect 32 0 3 0;
#X connect 33 0 32 1;
#X connect 34 0 35 0;
#X connect 35 0 19 0;
#X connect 36 0 35 0;
#X connect 37 0 33 0;
