#N canvas 520 462 560 541 10;
#X msg 15 99 40;
#X obj 15 76 loadbang;
#N canvas 783 398 450 300 square 0;
#X obj 32 41 phasor~;
#X obj 32 64 expr~ if($v1>0.5 \, 1 \, 0);
#X obj 32 87 outlet~;
#X obj 32 18 inlet~;
#X connect 0 0 1 0;
#X connect 1 0 2 0;
#X connect 3 0 0 0;
#X restore 43 146 pd square;
#X obj 43 122 *~ 2, f 6;
#N canvas 783 398 450 300 square 0;
#X obj 32 41 phasor~;
#X obj 32 64 expr~ if($v1>0.5 \, 1 \, 0);
#X obj 32 87 outlet~;
#X obj 32 18 inlet~;
#X connect 0 0 1 0;
#X connect 1 0 2 0;
#X connect 3 0 0 0;
#X restore 43 200 pd square;
#X obj 43 177 *~ 3, f 6;
#X obj 160 202 bp~ 10000 20;
#X obj 160 225 hip~ 7000;
#X obj 160 248 hip~ 7000;
#X obj 160 271 hip~ 7000;
#X obj 160 294 hip~ 7000;
#N canvas 783 398 450 300 square 0;
#X obj 32 41 phasor~;
#X obj 32 64 expr~ if($v1>0.5 \, 1 \, 0);
#X obj 32 87 outlet~;
#X obj 32 18 inlet~;
#X connect 0 0 1 0;
#X connect 1 0 2 0;
#X connect 3 0 0 0;
#X restore 48 247 pd square;
#X obj 42 225 *~ 4.16;
#N canvas 783 398 450 300 square 0;
#X obj 32 41 phasor~;
#X obj 32 64 expr~ if($v1>0.5 \, 1 \, 0);
#X obj 32 87 outlet~;
#X obj 32 18 inlet~;
#X connect 0 0 1 0;
#X connect 1 0 2 0;
#X connect 3 0 0 0;
#X restore 51 290 pd square;
#X obj 42 272 *~ 5.43;
#N canvas 783 398 450 300 square 0;
#X obj 32 41 phasor~;
#X obj 32 64 expr~ if($v1>0.5 \, 1 \, 0);
#X obj 32 87 outlet~;
#X obj 32 18 inlet~;
#X connect 0 0 1 0;
#X connect 1 0 2 0;
#X connect 3 0 0 0;
#X restore 42 342 pd square;
#X obj 42 319 *~ 6.79;
#N canvas 783 398 450 300 square 0;
#X obj 32 41 phasor~;
#X obj 32 64 expr~ if($v1>0.5 \, 1 \, 0);
#X obj 32 87 outlet~;
#X obj 32 18 inlet~;
#X connect 0 0 1 0;
#X connect 1 0 2 0;
#X connect 3 0 0 0;
#X restore 41 388 pd square;
#X obj 41 365 *~ 8.12;
#X obj 196 366 *~;
#X obj 257 146 vline~;
#X obj 258 173 pow~ 4;
#X obj 309 145 vline~;
#X obj 310 172 pow~ 4;
#X msg 225 118 1 2 \, 0 90 2;
#X obj 199 83 bng 15 250 50 0 empty empty empty 17 7 0 10 -262144 -1
-1;
#X msg 270 91 1 2 \, 0.7 540 2 \, 0 90 542;
#X obj 199 40 inlet;
#X obj 196 493 outlet~;
#X obj 256 38 inlet;
#X obj 195 390 *~ 0.8;
#X connect 0 0 3 0;
#X connect 0 0 5 0;
#X connect 0 0 12 0;
#X connect 0 0 14 0;
#X connect 0 0 16 0;
#X connect 0 0 18 0;
#X connect 1 0 0 0;
#X connect 2 0 6 0;
#X connect 3 0 2 0;
#X connect 4 0 6 0;
#X connect 5 0 4 0;
#X connect 6 0 7 0;
#X connect 7 0 8 0;
#X connect 8 0 9 0;
#X connect 9 0 10 0;
#X connect 10 0 19 0;
#X connect 11 0 6 0;
#X connect 12 0 11 0;
#X connect 13 0 6 0;
#X connect 14 0 13 0;
#X connect 15 0 6 0;
#X connect 16 0 15 0;
#X connect 17 0 6 0;
#X connect 18 0 17 0;
#X connect 19 0 30 0;
#X connect 20 0 21 0;
#X connect 21 0 19 1;
#X connect 22 0 23 0;
#X connect 23 0 19 1;
#X connect 24 0 20 0;
#X connect 25 0 24 0;
#X connect 26 0 22 0;
#X connect 27 0 25 0;
#X connect 29 0 26 0;
#X connect 30 0 28 0;
