#N canvas 760 342 569 362 10;
#X obj 10 79 vline~;
#X obj 23 275 dac~;
#X obj 31 237 *~ 0.9;
#X obj 193 5 bng 15 250 50 0 empty empty empty 17 7 0 10 -262144 -1
-1;
#X msg 10 57 0.2 0 \, 0 1 0;
#X obj 98 79 vline~;
#X msg 98 57 250 0 \, 50 10 0;
#X obj 98 131 osc~;
#X obj 98 179 *~;
#X msg 203 57 1 4 \, 0.9 65 4 \, 0 660 69;
#X obj 203 79 vline~;
#X obj 202 113 pow~ 1.5;
#X obj 374 111 vline~;
#X msg 374 54 0.05 4 \, 0 100 4;
#X obj 319 143 noise~;
#X obj 319 173 lop~ 300;
#X obj 328 214 *~;
#X text 160 37 comment;
#X connect 0 0 2 0;
#X connect 2 0 1 1;
#X connect 2 0 1 0;
#X connect 3 0 4 0;
#X connect 3 0 6 0;
#X connect 3 0 9 0;
#X connect 3 0 13 0;
#X connect 4 0 0 0;
#X connect 5 0 7 0;
#X connect 6 0 5 0;
#X connect 7 0 8 0;
#X connect 8 0 2 0;
#X connect 9 0 10 0;
#X connect 10 0 11 0;
#X connect 11 0 8 1;
#X connect 12 0 16 1;
#X connect 13 0 12 0;
#X connect 14 0 15 0;
#X connect 15 0 16 0;
#X connect 16 0 2 0;
