#N canvas 98 604 569 362 10;
#X obj 13 122 vline~;
#X obj 196 48 bng 15 250 50 0 empty empty empty 17 7 0 10 -262144 -1
-1;
#X msg 13 100 0.2 0 \, 0 1 0;
#X obj 101 122 vline~;
#X msg 101 100 250 0 \, 50 10 0;
#X obj 101 174 osc~;
#X obj 101 222 *~;
#X obj 206 122 vline~;
#X obj 205 156 pow~ 1.5;
#X obj 377 154 vline~;
#X msg 377 97 0.05 4 \, 0 100 4;
#X obj 322 186 noise~;
#X obj 322 216 lop~ 300;
#X obj 331 257 *~;
#X text 163 80 comment;
#X obj 32 332 outlet~;
#X obj 172 14 inlet;
#X obj 35 281 *~ 0.3;
#X msg 206 100 1 4 \, 0.9 65 4 \, 0 460 69;
#X connect 0 0 17 0;
#X connect 1 0 2 0;
#X connect 1 0 4 0;
#X connect 1 0 18 0;
#X connect 1 0 10 0;
#X connect 2 0 0 0;
#X connect 3 0 5 0;
#X connect 4 0 3 0;
#X connect 5 0 6 0;
#X connect 6 0 17 0;
#X connect 7 0 8 0;
#X connect 8 0 6 1;
#X connect 9 0 13 1;
#X connect 10 0 9 0;
#X connect 11 0 12 0;
#X connect 12 0 13 0;
#X connect 13 0 17 0;
#X connect 16 0 1 0;
#X connect 17 0 15 0;
#X connect 18 0 7 0;
