#N canvas 1311 196 501 376 10;
#X obj 144 59 bng 15 250 50 0 empty empty empty 17 7 0 10 -262144 -1
-1;
#X msg 27 100 400 4 \, 200 10 4;
#X msg 128 100 1 4 \, 0 100 4;
#X obj 27 124 vline~;
#X obj 130 124 vline~;
#X obj 215 124 vline~;
#X obj 27 162 osc~;
#X obj 129 161 pow~ 4;
#X obj 215 161 pow~ 1.6;
#X obj 87 240 *~;
#X obj 161 198 noise~;
#X obj 187 249 *~;
#X obj 114 332 outlet~;
#X obj 122 15 inlet;
#X obj 119 285 *~ 0.2;
#X msg 214 100 0.4 4 \, 0 200 4;
#X connect 0 0 1 0;
#X connect 0 0 2 0;
#X connect 0 0 15 0;
#X connect 1 0 3 0;
#X connect 2 0 4 0;
#X connect 3 0 6 0;
#X connect 4 0 7 0;
#X connect 5 0 8 0;
#X connect 6 0 9 0;
#X connect 7 0 9 1;
#X connect 8 0 11 1;
#X connect 9 0 14 0;
#X connect 10 0 11 0;
#X connect 11 0 14 0;
#X connect 13 0 0 0;
#X connect 14 0 12 0;
#X connect 15 0 5 0;
