#N canvas 811 118 450 300 10;
#X obj 138 15 bng 15 250 50 0 empty empty empty 17 7 0 10 -262144 -1
-1;
#X msg 21 56 400 4 \, 200 10 4;
#X msg 122 56 1 4 \, 0 100 4;
#X msg 209 56 0.4 4 \, 0 300 4;
#X obj 21 80 vline~;
#X obj 124 80 vline~;
#X obj 209 80 vline~;
#X obj 21 118 osc~;
#X obj 123 117 pow~ 4;
#X obj 209 117 pow~ 1.6;
#X obj 81 196 *~;
#X obj 155 154 noise~;
#X obj 181 205 *~;
#X obj 117 243 *~ 0.5;
#X obj 117 272 dac~;
#X connect 0 0 1 0;
#X connect 0 0 2 0;
#X connect 0 0 3 0;
#X connect 1 0 4 0;
#X connect 2 0 5 0;
#X connect 3 0 6 0;
#X connect 4 0 7 0;
#X connect 5 0 8 0;
#X connect 6 0 9 0;
#X connect 7 0 10 0;
#X connect 8 0 10 1;
#X connect 9 0 12 1;
#X connect 10 0 13 0;
#X connect 11 0 12 0;
#X connect 12 0 13 0;
#X connect 13 0 14 1;
#X connect 13 0 14 0;
